<svg id="Layer_1" data-name="Layer 1" xmlns="http://www.w3.org/2000/svg" viewBox="0 0 406.68 182.62"><defs><style>.cls-1{fill:#1b0454;}.cls-2{fill:#4800d3;}</style></defs><path class="cls-1" d="M373.62,470.47v68a1.14,1.14,0,0,1-.25.71q-9.47,11.37-25.42,17.4Q330.85,563,309.13,563q-22.33,0-39.55-10.13a66.64,66.64,0,0,1-24.24-24.69,1.09,1.09,0,0,1,.42-1.49l24.05-13.23a1.08,1.08,0,0,1,1.49.48,49.56,49.56,0,0,0,5.18,8.49q12.13,15.91,33.75,15.91,23.32,0,33.39-10.42a1.12,1.12,0,0,0,.3-.76V493.91a1.08,1.08,0,0,0-1.08-1.08H311.57a1.08,1.08,0,0,1-.52-2l37.22-20.47a7.73,7.73,0,0,1,3.71-.95h20.56A1.08,1.08,0,0,1,373.62,470.47Z" transform="translate(-233.33 -380.4)"/><path class="cls-2" d="M329.28,469.39a1.08,1.08,0,0,1,.54,2l-5,2.93-15.91,9.37a1.08,1.08,0,0,1-1.63-.93v-6.7a6.68,6.68,0,0,1,6.67-6.68Z" transform="translate(-233.33 -380.4)"/><path class="cls-2" d="M373.62,431.67v4.66a1.08,1.08,0,0,1-1.08,1.08h-22.1a7.55,7.55,0,0,1-7.32-5.62q-6.9-26.48-36.06-26.48-20.76,0-31.56,14.94t-11.17,43.84v13.66q0,16.85,4.16,29.29a1.07,1.07,0,0,1-.45,1.26l-3.14,1.92-19.82,12.26-1.07.67a1.09,1.09,0,0,1-1.56-.45q-8.77-18.45-9.12-42.81V466q0-40.28,19.28-62.92t53.84-22.65q29.66,0,47.11,14.71,15.53,13.08,20,36.34A1.64,1.64,0,0,1,373.62,431.67Z" transform="translate(-233.33 -380.4)"/><path class="cls-1" d="M514.73,506.87H508.3a1.09,1.09,0,0,0-1.09,1.1,49.14,49.14,0,0,0,7.36,25.79,1.1,1.1,0,0,1,.16.56V559.5a1.08,1.08,0,0,1-1.08,1.08h-28.6A1.08,1.08,0,0,1,484,559.5V494.8a1.08,1.08,0,0,1,1.39-1L509.74,501a1,1,0,0,0,.69-.07l2.71-1.45a1.08,1.08,0,0,1,1.59.95Z" transform="translate(-233.33 -380.4)"/><path class="cls-1" d="M445,481.72H405.58a1.08,1.08,0,0,0-1.08,1.08v76.7a1.08,1.08,0,0,1-1.08,1.08H374.7a1.08,1.08,0,0,1-1.08-1.08V461.7a1.08,1.08,0,0,1,1.39-1L439.23,480Z" transform="translate(-233.33 -380.4)"/><path class="cls-2" d="M514.73,415.79a1.06,1.06,0,0,1-.05.31,45.41,45.41,0,0,0-2,13.62,43.51,43.51,0,0,0,2,13.28,1.06,1.06,0,0,1,.05.31v43.82a1.06,1.06,0,0,1-.58.95l-4.64,2.44a1,1,0,0,1-.81.08l-24-7.31C484,483,484,482,484,482v1l-4.27-1.28a1.06,1.06,0,0,1-.31-.05l-2.11-.64c-11.72-3.63-23.51-7-35.27-10.46l-35.31-10.34c-10.53-3-21.1-6-31.66-8.92a2,2,0,0,1-1.45-1.92V383.92a1.08,1.08,0,0,1,1.08-1.08h28.72a1.08,1.08,0,0,1,1.08,1.08v71.82a1.08,1.08,0,0,0,1.08,1.08h77.31a1.08,1.08,0,0,0,1.08-1.08V383.92a1.08,1.08,0,0,1,1.08-1.08h28.6a1.08,1.08,0,0,1,1.08,1.08Z" transform="translate(-233.33 -380.4)"/><path class="cls-1" d="M638.8,434.72h-2.58a.45.45,0,0,1-.21-.84l2.28-1.22a1.08,1.08,0,0,1,1.59.94v0A1.08,1.08,0,0,1,638.8,434.72Z" transform="translate(-233.33 -380.4)"/><path class="cls-1" d="M640,514.56q0,22.22-17,35.34T576.78,563a86.81,86.81,0,0,1-35.46-7.14q-16.19-7.14-25.15-19.71c-.5-.71-1-1.42-1.44-2.15a48.87,48.87,0,0,1-7.49-25,2.09,2.09,0,0,1,2.08-2.18h26.73a2.07,2.07,0,0,1,2.07,2q.61,13.71,10,21.47,10,8.3,28.69,8.3,16.11,0,24.23-6.53a21.1,21.1,0,0,0,8.12-17.28q0-11.71-8.24-18.06t-29.73-12.82q-7.1-2.15-13.24-4.44a2.08,2.08,0,0,1-.24-3.78l28.57-15.25a2.1,2.1,0,0,1,1.63-.15q17,5.52,27.84,12.33,12.57,7.88,18.43,18.06T640,514.56Z" transform="translate(-233.33 -380.4)"/><path class="cls-2" d="M639.1,425.48l-1,.47c-5.61,2.72-11.23,5.41-16.85,8.13a6.32,6.32,0,0,1-2.77.64h-3.27a6.6,6.6,0,0,1-6.5-5.7,26,26,0,0,0-8.33-16.08q-8.73-7.87-25-7.88-15.13,0-23.49,6.47t-8.37,18.07q0,9.76,9,16.29,6.45,4.67,18.89,9.15a2,2,0,0,1,.21,3.58h0l-13.18,6.73-15.19,7.76h0c-2.27-1.18-4.39-2.37-6.35-3.6q-17.25-10.85-22.25-26.36a43.49,43.49,0,0,1-2-13.43,45.36,45.36,0,0,1,2-13.77q3.93-12.46,15.48-21.63,17.5-13.92,45.47-13.92,18.55,0,33.08,6.84a54.41,54.41,0,0,1,22.83,19.47A49.72,49.72,0,0,1,639.1,425.48Z" transform="translate(-233.33 -380.4)"/></svg>